<?xml version="1.0" encoding="UTF-8"?>
<!DOCTYPE svg PUBLIC "-//W3C//DTD SVG 1.1//EN" "http://www.w3.org/Graphics/SVG/1.1/DTD/svg11.dtd">
<!-- Creator: CorelDRAW 2018 (64-Bit Evaluation Version) -->
<svg xmlns="http://www.w3.org/2000/svg" xml:space="preserve" width="0.148728in" height="0.112079in" version="1.1" style="shape-rendering:geometricPrecision; text-rendering:geometricPrecision; image-rendering:optimizeQuality; fill-rule:evenodd; clip-rule:evenodd"
viewBox="0 0 1.24 0.94"
 xmlns:xlink="http://www.w3.org/1999/xlink">
 <defs>
  <style type="text/css">
   <![CDATA[
    .str0 {stroke:black;stroke-width:0.03;stroke-miterlimit:2.61313}
    .fil0 {fill:none}
    .fil1 {fill:black}
   ]]>
  </style>
 </defs>
 <g id="Layer_x0020_1">
  <metadata id="CorelCorpID_0Corel-Layer"/>
  <g id="_2835255880192">
   <path class="fil0 str0" d="M0.43 0.37c-0.02,-0.01 -0.01,-0.01 -0.03,-0.04 -0.04,-0.06 -0.08,-0.05 -0.13,0 -0.08,0.09 -0.04,0.13 -0.12,0.16 -0.04,0.02 -0.06,0.03 -0.08,0.06 -0.02,0.04 -0.02,0.08 0.01,0.11 0.12,0.1 0.51,-0.06 0.75,-0.04 0.11,0.01 0.28,0.07 0.35,0.15 0.02,0.02 0.02,0.03 0.04,0.04 -0.01,-0.13 -0.03,-0.29 -0.09,-0.4 -0.03,-0.06 -0.06,-0.1 -0.11,-0.13 -0.14,-0.08 -0.17,-0.21 -0.24,-0.25 -0.11,-0.06 -0.18,0.13 -0.22,0.23 -0.03,0.05 -0.01,0.04 -0.06,0.06 -0.04,0.01 -0.05,0.04 -0.07,0.05z"/>
   <path class="fil1" d="M0.01 0.76c-0,-0 -0,-0 -0,-0l-0 -0c-0.01,0.04 0.05,0.06 0.08,0.07 0.21,0.07 0.54,-0.07 0.85,0.01 0.08,0.02 0.16,0.05 0.21,0.09l0.03 0.02c0,-0.03 -0.01,-0.03 -0.03,-0.05 -0.13,-0.09 -0.32,-0.12 -0.51,-0.1 -0.13,0.01 -0.54,0.09 -0.62,-0.02z"/>
   <path class="fil1" d="M1.2 0.89l-0 -0.03c-0.01,-0.03 -0.14,-0.1 -0.2,-0.12 -0.35,-0.11 -0.58,0.04 -0.84,0.01 -0.04,-0 -0.08,-0.01 -0.1,-0.04 -0,-0 -0,-0.01 -0.01,-0.01l-0.01 -0.01c-0,-0 -0,-0 -0,-0 -0,-0 -0,-0 -0,-0 0.02,0.17 0.45,0.07 0.6,0.05 0.12,-0.01 0.23,-0.01 0.34,0.02 0.17,0.05 0.19,0.11 0.24,0.13z"/>
  </g>
 </g>
</svg>
