<?xml version="1.0" encoding="UTF-8"?>
<!DOCTYPE svg PUBLIC "-//W3C//DTD SVG 1.1//EN" "http://www.w3.org/Graphics/SVG/1.1/DTD/svg11.dtd">
<!-- Creator: CorelDRAW 2018 (64 Bit Versión de evaluación) -->
<svg xmlns="http://www.w3.org/2000/svg" xml:space="preserve" width="0.512681in" height="0.544083in" version="1.1" style="shape-rendering:geometricPrecision; text-rendering:geometricPrecision; image-rendering:optimizeQuality; fill-rule:evenodd; clip-rule:evenodd"
viewBox="0 0 19.16 20.34"
 xmlns:xlink="http://www.w3.org/1999/xlink">
 <defs>
  <style type="text/css">
   <![CDATA[
    .fil0 {fill:black}
    .fil1 {fill:red}
   ]]>
  </style>
 </defs>
 <g id="Layer_x0020_1">
  <metadata id="CorelCorpID_0Corel-Layer"/>
  <g id="_2778392132640">
   <path class="fil0" d="M5.91 14.62c0.09,0.16 0.13,0.31 0.3,0.41 0.01,0 0.22,0.13 0.48,0.15 0.16,-0.14 0.07,-0.13 0.21,-0.2l-0.14 -0.27c-0.1,0.07 0.15,0.08 -0.18,0.03 -0.01,-0 -0.12,-0.04 -0.16,-0.05 -0.04,-0.26 -0.13,-0.25 0.04,-0.48 -0.05,-0.19 0,-0.06 -0.09,-0.11 -0.13,0.15 -0.17,0.37 -0.05,0.58 0.15,0.27 0.34,0.1 0.39,0.3 -0.22,0.22 -0.51,-0.1 -0.57,-0.31 -0.06,-0.2 -0.02,-0.74 0.18,-0.66l-0.08 -0.14c-0.19,0.13 -0.25,0.35 -0.26,0.6 0.01,0.19 0.02,0.06 -0.08,0.14z"/>
   <path class="fil0" d="M5.23 14.64l0.27 -0.27c0.16,-0.16 0.16,-0.12 0.17,-0.35 -0.09,-0.1 -0.17,-0.19 -0.3,-0.23l0.02 -0.29c-0.17,0.19 -0.15,0.85 -0.16,1.14z"/>
   <path class="fil0" d="M3.48 14.4l0.27 0.05c0.25,-0.27 0.21,-0.27 0.25,-0.7 -0.32,0.02 -0.5,0.31 -0.53,0.65z"/>
   <path class="fil0" d="M5.23 14.89l0.47 0.04c-0.03,0.22 -0.23,0.12 -0.47,0.13l0 -0.18zm0 0c-0.01,0.01 -0.02,0.02 -0.02,0.03 -0,0.01 -0.02,0.02 -0.02,0.04 -0.07,0.2 0.03,-0.15 -0.02,0.08 -0,0 -0.01,0.13 -0.01,0.14 0.13,-0.01 0.29,0 0.42,-0.01 0.23,-0.03 0.09,-0.1 0.23,-0.05 0.08,-0.1 0.06,-0.14 0.08,-0.3l-0.68 -0.05 0.03 0.12z"/>
   <path class="fil0" d="M11.86 14.4c0.02,0.07 0.03,0.14 0.04,0.2 0,0.02 0.01,0.07 0.02,0.08 0.03,0.09 0.03,0.07 0.06,0.12 -0.02,-0.21 -0.08,-0.21 0.04,-0.35 0.11,0.05 0.11,0.01 0.08,0.22 -0.03,0.23 -0.12,0.23 -0.14,0.25 0.05,0.19 0,0.12 0.09,0.2 0.07,-0.22 0.46,-1 -0.19,-0.72z"/>
   <path class="fil0" d="M11.84 14.03l-0.02 -0.18c0.25,0.01 0.27,-0.04 0.28,0.17l-0.26 0zm0 0c-0.03,0.14 -0.04,-0.01 -0.01,0.11 0.02,0.1 -0,0.07 0.05,0.12 -0.01,-0.18 0,-0.07 0.04,-0.12 0.32,-0.01 0.31,-0.1 0.27,-0.39l-0.45 -0.02c0.02,0.19 -0,0.18 0.09,0.3z"/>
   <path class="fil0" d="M1.18 10.74c-0.25,-1.13 -0.73,-2.72 -0.42,-3.96 0.35,-1.44 1.57,-0.36 3.05,-0.04 -0.17,0.3 -0.36,0.49 -0.53,0.83 -0.57,1.16 -0.51,2.07 -0.18,3.24l-1.92 -0.07zm4.15 -8.05c1.74,-0.5 2.44,2.19 0.7,2.66 -1.69,0.46 -2.56,-2.12 -0.7,-2.66zm-1.85 11.7c0.02,-0.34 0.2,-0.63 0.53,-0.65 0.04,-0.51 0.12,-1.03 0.18,-1.54 0.12,-1.04 0.05,-0.62 -0.32,-1.35 -0.64,-1.28 -0.32,-3.01 0.69,-3.87 0.66,-0.56 1.39,-0.4 1.72,0.19 0.16,0.29 0.09,0.54 0.18,0.74 0.07,0.15 0.92,0.55 1.12,0.66 0.52,0.29 0.69,0.1 1.27,-0.09 0.46,-0.14 0.9,-0.3 1.34,-0.44 0.43,-0.13 1.03,-0.45 1.34,-0.08 0.13,0.16 0.18,0.44 0.06,0.66 -0.12,0.23 -0.27,0.24 -0.57,0.34 -0.88,0.28 -1.78,0.56 -2.65,0.86 -0.69,0.24 -1.07,-0.1 -1.9,-0.56 -0.22,-0.12 -0.39,-0.29 -0.66,-0.17 -0.44,0.21 0.08,1.05 0.32,1.78 0.36,1.04 1.22,2.29 1.78,3.25 0.66,1.13 0.59,0.76 0.6,1.95 0.01,0.82 0.02,1.63 0.03,2.44 0,0.43 0.06,0.78 -0.24,1.01 -0.27,0.21 -0.67,0.15 -0.89,-0.07 -0.32,-0.34 -0.19,-1.74 -0.19,-2.31 -0,-0.36 0.03,-1.52 -0.1,-1.77 -0.05,-0.11 -0.18,-0.33 -0.24,-0.37 -0.14,0.06 -0.05,0.06 -0.21,0.2 -0.26,-0.02 -0.47,-0.15 -0.48,-0.15 0.02,0.18 0.08,0.21 0.21,0.43 0.39,0.65 -0.17,3.37 0.37,4.25 0.31,0.52 1.11,0.85 1.83,0.4 0.7,-0.44 0.63,-1.01 0.61,-2.03 -0.02,-0.88 -0.03,-1.76 -0.03,-2.64 -0,-0.67 -0.39,-1.18 -0.78,-1.82 -0.59,-0.96 -1.53,-2.44 -1.81,-3.52 0.31,0.09 0.63,0.37 0.96,0.46 0.55,0.16 1.72,-0.33 2.28,-0.51 0.29,-0.1 0.82,-0.3 1.12,-0.35l0.79 4.01 0.45 0.02c0.04,0.29 0.05,0.38 -0.27,0.39 -0.04,0.04 -0.05,-0.07 -0.04,0.12l-0.02 0.15c0.64,-0.28 0.25,0.5 0.19,0.72 -0.02,0.37 0.25,1.52 0.33,1.95 0.06,0.32 0.23,1.72 0.49,1.83l0.29 0.01c0.31,-0.31 0.16,-0.57 0.06,-1.04l-0.68 -3.59c-0.27,-1.58 -0.61,-3.16 -0.9,-4.77 0.1,-0.12 0.86,-0.45 0.7,-1.42 -0.09,-0.55 -0.54,-0.9 -1.14,-0.99 -0.11,-0.36 -0.05,-1.04 -0.52,-0.99 -0.49,0.06 -0.2,0.73 -0.16,1.13 -0.56,0.14 -1.19,0.38 -1.76,0.56 -0.27,0.09 -0.62,0.29 -0.86,0.16 -0.27,-0.14 -0.54,-0.33 -0.8,-0.42 -0.03,-0.4 -0.16,-0.66 -0.35,-0.93 -0.27,-0.37 -0.45,-0.36 -0.69,-0.55 -0.01,-0.01 -0.02,-0.02 -0.03,-0.03 0.96,-0.19 1.74,-0.95 1.71,-2.07 -0.05,-2.39 -3.49,-2.76 -4.05,-0.43 -0.29,1.21 0.5,2.13 1.34,2.42 -0.08,0.04 -0.62,0.27 -0.66,0.27 -0.1,-0 -0.58,-0.19 -0.71,-0.24 -0.49,-0.18 -0.98,-0.34 -1.48,-0.51 -1.35,-0.46 -2.02,0.41 -2.14,1.63 -0.12,1.14 0.18,2.5 0.44,3.53 0.21,0.82 0.3,0.75 1.19,0.79 2.32,0.11 2,-0.51 1.67,2.34 -0.04,0.32 -0.1,0.5 0.16,0.62z"/>
   <path class="fil0" d="M15.29 2.79c1.27,-0.19 1.55,1.69 0.32,1.92 -1.28,0.23 -1.61,-1.72 -0.32,-1.92zm-0.2 -1c-0,0.47 0.05,0.31 -0.21,0.42 -0.14,0.05 -0.24,0.1 -0.36,0.14 -0.24,-0.26 -0.48,-0.49 -0.73,-0.74 -0.22,-0.22 -0.49,-0.64 -0.9,-0.57 -0.73,0.31 0.74,1.3 1.14,1.82l-0.23 0.55c-0.52,-0 -1.05,-0 -1.58,0 -0.78,0.01 -0.66,0.67 -0.1,0.67l1.68 -0 0.21 0.55c-0.42,0.63 -1.71,1.33 -1.22,1.76 0.35,0.32 0.89,-0.47 1.33,-0.88 0.16,-0.15 0.33,-0.32 0.43,-0.37 0.64,0.36 0.54,-0.19 0.53,1.62 -0,0.52 0,0.8 0.56,0.67 0.25,-0.4 0.03,-1.67 0.11,-1.99 0.03,-0.13 0.34,-0.21 0.58,-0.3 0.27,0.27 0.51,0.51 0.78,0.79 0.17,0.17 0.59,0.76 0.94,0.47 0.37,-0.31 -0.27,-0.8 -0.41,-0.94 -0.22,-0.22 -0.64,-0.58 -0.81,-0.83l0.23 -0.55c0.4,-0 0.81,-0 1.21,-0 0.41,0 0.88,0.09 0.89,-0.32 0.02,-0.43 -0.45,-0.35 -0.84,-0.35 -0.42,0 -0.85,0 -1.28,-0l-0.23 -0.63 0.86 -0.78c0.26,-0.25 0.73,-0.56 0.33,-0.96 -0.44,-0.09 -0.68,0.32 -0.91,0.54 -0.24,0.24 -0.54,0.51 -0.76,0.76l-0.58 -0.23 0 -1.64c0,-0.65 -0.61,-0.55 -0.67,-0.14 -0.05,0.35 -0,1.07 -0,1.46z"/>
   <path class="fil0" d="M5.15 15.19c-0.04,0.61 -0.12,0.74 -0.39,1.14l-1.74 2.68c-0.25,0.32 -0.7,0.41 -1.02,0.1 -0.35,-0.35 -0.19,-0.7 0.03,-1.04 0.19,-0.29 0.37,-0.61 0.57,-0.9 0.21,-0.3 0.52,-0.59 0.47,-1.03 -0.31,-0.19 -0.44,-0.24 -0.65,0.08 -0.13,0.2 -0.24,0.37 -0.38,0.58 -0.24,0.36 -0.56,0.81 -0.75,1.19 -0.55,1.09 0.4,2.25 1.52,1.93 0.49,-0.14 0.82,-0.54 1.02,-0.97 0.58,-1.29 2.13,-2.52 1.96,-3.84 -0.14,-0.05 0,0.03 -0.23,0.05 -0.13,0.01 -0.29,0 -0.42,0.01z"/>
   <path class="fil0" d="M5.39 13.5l-0.02 0.29c0.12,0.04 0.2,0.13 0.3,0.23 -0.01,0.23 -0.01,0.19 -0.17,0.35l-0.27 0.27 -0.03 0.14 0.68 0.05 0.03 -0.2c0.1,-0.07 0.08,0.06 0.08,-0.14 0,-0.25 0.06,-0.47 0.26,-0.6 -0.05,-0.12 -0.25,-0.49 -0.33,-0.56 -0.07,-0.07 -0.18,-0.12 -0.32,-0.08 -0.19,0.04 -0.19,0.12 -0.2,0.25z"/>
   <path class="fil0" d="M6.36 14.13l-0.04 -0.09c-0.2,-0.09 -0.24,0.46 -0.18,0.66 0.06,0.2 0.35,0.53 0.57,0.31 -0.06,-0.2 -0.25,-0.03 -0.39,-0.3 -0.12,-0.21 -0.08,-0.43 0.05,-0.58z"/>
   <path class="fil0" d="M6.76 14.72l-0.3 -0.49c-0.17,0.23 -0.08,0.21 -0.04,0.48 0.04,0.01 0.14,0.04 0.16,0.05 0.33,0.05 0.08,0.04 0.18,-0.03z"/>
   <path class="fil0" d="M5.23 14.89l-0 0.18c0.24,-0.01 0.44,0.08 0.47,-0.13l-0.47 -0.04z"/>
   <path class="fil0" d="M11.99 14.81l-0.03 0.12c0.03,-0.02 0.11,-0.02 0.14,-0.25 0.03,-0.21 0.03,-0.17 -0.08,-0.22 -0.12,0.14 -0.06,0.15 -0.04,0.35z"/>
   <path class="fil0" d="M11.84 14.03l0.26 -0c-0.01,-0.22 -0.03,-0.17 -0.28,-0.17l0.02 0.18z"/>
   <path class="fil1" d="M0.76 6.79c-0.31,1.24 0.18,2.83 0.42,3.95l1.92 0.08c-0.34,-1.17 -0.4,-2.08 0.18,-3.24 0.17,-0.34 0.36,-0.53 0.53,-0.83 -1.48,-0.32 -2.7,-1.4 -3.05,0.04z"/>
  </g>
 </g>
</svg>
