<?xml version="1.0" encoding="UTF-8"?>
<!DOCTYPE svg PUBLIC "-//W3C//DTD SVG 1.1//EN" "http://www.w3.org/Graphics/SVG/1.1/DTD/svg11.dtd">
<!-- Creator: CorelDRAW 2018 (64 Bit Versión de evaluación) -->
<svg xmlns="http://www.w3.org/2000/svg" xml:space="preserve" width="0.833535in" height="0.74387in" version="1.1" style="shape-rendering:geometricPrecision; text-rendering:geometricPrecision; image-rendering:optimizeQuality; fill-rule:evenodd; clip-rule:evenodd"
viewBox="0 0 25.9 23.11"
 xmlns:xlink="http://www.w3.org/1999/xlink">
 <defs>
  <style type="text/css">
   <![CDATA[
    .fil0 {fill:black}
    .fil1 {fill:red}
   ]]>
  </style>
 </defs>
 <g id="Layer_x0020_1">
  <metadata id="CorelCorpID_0Corel-Layer"/>
  <g id="_2778392141376">
   <g>
    <path class="fil0" d="M25.81 2.06l0 0.06 -0 -0.06zm0 6.21l-0.11 -0.12c-0.46,-0.04 -0.82,0.14 -1.24,0.14 -0.05,-0.92 0.06,-4.05 -0.03,-4.51 -0.14,-0.67 -1.05,-0.47 -1.77,-0.48 -0.76,-0.01 -1.57,0.03 -2.32,-0.01l0.09 -0.83 4.23 -0.14c0.43,-0.02 0.89,0.02 1.15,-0.21l-0 -0.06c-0.01,-0.13 -0.02,-0.27 -0.02,-0.42 -0.23,-0.23 -0.59,-0.11 -1.02,-0.09 -1,0.06 -3.42,0.19 -4.22,0.14 -0.28,-0.65 -0.21,-0.54 -1.57,-0.54 -1.47,0 -1.21,-0.07 -1.51,0.54 -2.03,0.08 -7.01,-0.33 -9.16,-0.55 -2.1,-0.22 -4.33,-0.53 -6.41,-0.9 -0.94,-0.17 -1.57,-0.44 -1.9,-0.03l0 0.26c0.25,0.31 0.39,0.26 0.89,0.35 4.3,0.82 7.68,1.1 12.04,1.46 0.75,0.06 4.34,0.1 4.67,0.22l0.09 0.78c-0.72,0.07 -1.63,0 -2.38,0.01 -1.89,0.02 -1.73,-0.16 -1.74,1.82 -0,0.41 -0.05,0.81 0.34,0.84 0.69,0.05 0.35,-1.37 0.43,-1.91l3.44 0.01 0.09 0.75c-0.66,-0 -1.31,0 -1.97,-0 -0.86,-0.01 -0.81,0.26 -0.82,1.06l-0 5.79c-0.02,2.17 -0.42,1.79 3.96,1.78 4.36,-0.01 3.92,0.42 3.9,-1.89l-0 -5.73c-0,-1.24 -0.06,-1.01 -2.79,-1.01l0.1 -0.76 3.45 0 -0 10.15 -9.37 0c-0.05,-1.78 0,-3.79 -0,-5.63 -0,-0.63 0.13,-1.44 -0.26,-1.58 -0.64,-0.07 -0.5,0.56 -0.5,1.09l0.01 1.19c-0,0.08 0,0.28 -0.06,0.33 -0.15,0.11 -4.4,0.2 -4.91,0.21 -0.44,-0.61 0.01,-0.54 -1.57,-0.55 -0.52,-0 -1.17,-0.12 -1.4,0.23 -0.1,0.14 -0.06,0.19 -0.16,0.32l-4.33 -0.16c-0.76,-0.04 -0.84,-0.16 -1.13,0.21l0 0.26c0.26,0.33 0.66,0.26 1.24,0.29 0.46,0.03 0.94,0.06 1.4,0.08 0.94,0.03 2.04,0.01 2.96,0.09l0.05 0.6c0.1,0.12 0.07,0.05 0.06,0.24l-3.66 0.03c-0.56,0.12 -0.47,0.75 -0.47,1.34 -0.03,3.01 0.03,6.16 -0,9.19 -0.01,0.69 0.02,1.06 0.74,1.09 0.65,0.02 1.39,0.18 1.3,-0.56 -0.34,-0.29 -0.7,-0.21 -1.22,-0.2 -0.09,-0.09 -0.07,0.14 -0.08,-0.17 -0.01,-1.06 -0.06,-9.67 0.03,-9.98 0.42,-0.05 2.29,-0.01 3,-0.02 0.19,-0 0.3,-0.03 0.44,0.06l0.02 0.28c0.11,0.06 0.1,0.32 0.08,0.46l-2.42 0.03c-0.47,0.15 -0.37,0.65 -0.37,1.17l-0 6.49c0,0.64 0.01,0.9 0.68,0.92 1.07,0.03 2.18,0 3.25,-0 1.06,-0 2.13,0.02 3.19,0 0.68,-0.01 0.73,-0.2 0.74,-0.87l-0 -6.49c-0,-0.57 0.13,-1.05 -0.37,-1.23l-2.41 -0.02c-0.02,-0.2 -0.02,-0.24 0.06,-0.37l0.04 -0.36c0.22,-0.14 3.28,-0.06 3.44,-0.05 0.09,0.28 0.05,8.96 0.03,9.98 -0.01,0.33 0.01,0.07 -0.08,0.17 -0.74,-0.04 -6.6,-0.09 -6.83,0.07 -0.16,0.11 -0.23,0.39 -0.07,0.57 0.19,0.22 2.14,0.12 2.48,0.12 1.15,-0.01 2.31,0.01 3.46,-0 2.25,-0.02 1.73,0.5 1.77,-5.14l0 -5.19c-0,-0.55 0.07,-1.19 -0.45,-1.26 -0.49,-0.08 -1.28,-0.03 -1.81,-0.03 -0.46,-0.01 -1.48,0.06 -1.87,-0.03 -0.01,-0.18 -0.04,-0.12 0.05,-0.23l0.05 -0.6 5.11 -0.19c0.01,0.89 0,1.78 0,2.66 -0,0.88 -0.25,1.87 0.76,1.9 2.49,0.06 5.42,-0.01 8.01,-0 0.71,0 2,0.23 2.11,-0.54 0.13,-0.89 -0.08,-4.02 0.02,-5.33 0.5,-0.14 0.97,-0.09 1.29,-0.34l0.05 -0.49zm0.09 9.07l0 0.31 -0 -0.31zm-17.08 3.47l-3.58 0c0.05,-0.54 0.26,-0.8 0.58,-1.1 0.57,-0.54 0.43,-0.12 1.21,-0.12 0.76,0 0.65,-0.42 1.21,0.12 0.29,0.27 0.53,0.56 0.58,1.1zm-2.74 -2.7c-0.32,-1.3 1.59,-1.73 1.91,-0.52 0.34,1.3 -1.6,1.74 -1.91,0.52zm0.36 -1.91c-0.3,0.18 -0.36,0.15 -0.6,0.39 -0.97,0.96 -0.43,1.74 -0.23,2.32 -0.71,0.53 -0.99,0.97 -1.14,1.89l-0.53 0.02c-0.1,-0.08 -0.08,0.13 -0.09,-0.16 -0.02,-0.7 -0.03,-6.71 0.03,-6.95 0.3,-0.04 0.73,-0.02 1.05,-0.02l0.81 -0c0.25,0.01 0.16,-0.03 0.26,0.09 0.25,0.45 0.43,0.39 1.03,0.39 0.62,0 0.78,0.05 1.04,-0.38 0.07,-0.16 0.65,-0.09 1.02,-0.09 0.34,-0 0.77,-0.02 1.11,0.01 0.09,0.29 0.04,6.15 0.03,6.95 -0,0.32 0.01,0.08 -0.07,0.17l-0.53 -0.01c-0.18,-0.38 -0.12,-0.67 -0.4,-1.11 -0.17,-0.28 -0.48,-0.65 -0.77,-0.76 0.08,-0.31 0.66,-1.12 0.04,-2.03 -0.41,-0.6 -0.78,-0.74 -1.72,-0.8 -0.03,0.02 0,0.03 -0.13,0.06 -0.08,0.02 -0.14,0.02 -0.22,0.04zm9.4 -10.62l2.1 -0c0.29,0.54 0.3,0.46 1.04,0.46 0.74,-0 0.82,0.1 1.09,-0.45l2.08 -0 0.03 7.11 -6.33 0.01 -0.01 -7.11zm-9.14 7.63c-0.09,-0.18 -0.09,-0.45 -0.1,-0.7l-0.29 -2.47 1.44 -0 -0.39 3.35 -0.63 0.01 -0.02 -0.19zm13.04 -11.28l-0.43 3.29c-0.14,0.09 -0.48,0.07 -0.53,0.05 -0.14,-0.06 -0.11,-0.18 -0.13,-0.4l-0.36 -2.95 1.45 0z"/>
   </g>
   <path class="fil1" d="M18.98 10.46c-0.23,-0.24 -0.48,-0.43 -0.71,-0.68l-0.7 -0.76c-0.19,-0.42 0.11,-0.81 0.45,-0.86 0.63,-0.1 0.53,0.46 1.01,0.43 0.4,-0.02 0.38,-0.52 0.96,-0.43 0.34,0.05 0.68,0.46 0.43,0.89 -0.09,0.16 -1.32,1.34 -1.45,1.41zm0.04 -2.77c0,0 0,0 0,0z"/>
   <path class="fil1" d="M7.98 17.58c-0.32,-1.21 -2.23,-0.78 -1.91,0.52 0.3,1.22 2.25,0.78 1.91,-0.52z"/>
   <path class="fil1" d="M8.24 19.7c-0.57,-0.54 -0.45,-0.11 -1.21,-0.12 -0.78,-0 -0.64,-0.42 -1.21,0.12 -0.32,0.3 -0.52,0.57 -0.58,1.1l3.58 -0c-0.05,-0.55 -0.29,-0.83 -0.58,-1.1z"/>
  </g>
 </g>
</svg>
