<?xml version="1.0" encoding="UTF-8"?>
<!DOCTYPE svg PUBLIC "-//W3C//DTD SVG 1.1//EN" "http://www.w3.org/Graphics/SVG/1.1/DTD/svg11.dtd">
<!-- Creator: CorelDRAW 2018 (64 Bit Versión de evaluación) -->
<svg xmlns="http://www.w3.org/2000/svg" xml:space="preserve" width="0.619091in" height="0.678173in" version="1.1" style="shape-rendering:geometricPrecision; text-rendering:geometricPrecision; image-rendering:optimizeQuality; fill-rule:evenodd; clip-rule:evenodd"
viewBox="0 0 13.33 14.6"
 xmlns:xlink="http://www.w3.org/1999/xlink">
 <defs>
  <style type="text/css">
   <![CDATA[
    .fil0 {fill:black}
    .fil1 {fill:red}
   ]]>
  </style>
 </defs>
 <g id="Layer_x0020_1">
  <metadata id="CorelCorpID_0Corel-Layer"/>
  <g id="_2778393941328">
   <g>
    <path class="fil0" d="M5.5 13.1c-0.08,-0.7 0.4,-1.25 1,-1.32 0.74,-0.09 1.29,0.43 1.33,1.07 0.1,1.56 -2.16,1.69 -2.33,0.24zm3.27 0.77l-0.04 0.22 -0.87 0.04 0.29 -0.4c0.22,-1.18 0.35,-0.76 -0.26,-1.95 1.24,-0.09 0.87,0.09 0.89,2.09zm-3.59 -0.14l0.29 0.39 -0.87 -0.02 -0.04 -0.23c0.02,-2 -0.35,-2.18 0.89,-2.09 -0.62,1.23 -0.5,0.7 -0.26,1.95zm0.24 -2.88l2.47 -0.02 0.11 0.45 -2.68 0.01 0.09 -0.44zm3.03 0.05c-0.14,-0.18 -0.14,-0.29 -0.18,-0.55l-0.99 0 0.9 -0.93 0.52 0.1c0.03,0.29 -0.17,1.06 -0.25,1.38zm-3.82 -1.37l0.51 -0.09 0.92 0.9 -1 0.01c-0.05,0.25 -0.04,0.36 -0.18,0.55 -0.07,-0.27 -0.29,-1.15 -0.25,-1.37zm1.02 -0.76c0.33,0.04 0.58,0.17 0.99,0.17 0.44,0.01 0.69,-0.12 1.05,-0.17 0.07,-0.08 -0.12,-0.05 0.17,-0.09 0.02,0.23 0.04,0.24 -0.04,0.42 -0.15,0.21 -0.96,1.05 -1.19,1.13l-1.11 -1.13c-0.01,-0.03 -0.03,0.03 -0.05,-0.16 -0.01,-0.11 0,-0.16 0.01,-0.27 0.3,0.04 0.09,0.01 0.17,0.09zm3.84 -3.99c0.27,0.08 0.5,0.31 0.48,0.66 -0.01,0.28 -0.2,0.54 -0.48,0.59l-0 -1.26zm-5.63 1.26c-0.59,-0.17 -0.63,-1.11 -0,-1.26l0 1.26zm4.63 -1.4c0.09,-0.19 0.31,-0.38 0.54,-0.36 0.02,0.74 0.09,1.99 -0.14,2.63 -0.22,0.62 -0.79,1.22 -1.4,1.38 -0.54,0.36 -1.77,0.19 -2.43,-0.49 -0.8,-0.84 -0.74,-1.21 -0.74,-2.61 0.67,-0.12 1.31,-0.19 1.86,-0.67 0.17,-0.15 0.24,-0.29 0.5,-0.23 -0.03,0.26 -0.25,0.58 -0.37,0.87 1.34,0.07 1.71,-0.42 2.18,-0.53zm-1.33 -4.13c0.93,0.1 1.73,0.69 2.13,1.24 0.62,0.86 0.69,1.37 0.69,2.67 -0.15,-0.04 -0.26,-0.07 -0.38,-0.14 -0.37,-0.23 -0.02,-0.36 -0.6,-0.53 -0.58,0.03 -0.86,0.72 -1.63,0.83 -0.18,0.12 -0.08,0.1 -0.3,0.05l0.03 -0.53c-0.6,-1.09 -1.06,0.58 -2.72,0.57 -0.09,-0.19 -0.04,-0.21 -0.08,-0.45 -0.41,-0.02 -0.59,0.1 -0.93,0.2 0,-1.51 0.18,-2.2 1,-3.01 0.59,-0.58 1.63,-1.15 2.79,-0.91zm-2.99 8.6c-0.13,0.11 -0.05,0.08 -0.29,0.13 -0.11,0.02 -0.24,0.03 -0.35,0.05 -1.18,0.04 -2.14,0.48 -2.52,1.36 -0.31,0.72 -0.81,2.23 -1,3l3.59 -0 0.02 -0.48 -0.64 -0.01 0.34 -1.4c-0.03,-0.21 0.01,-0.11 -0.11,-0.25l-0.07 0.05c-0.28,-0.01 -0.11,-0.03 -0.27,0.05l-0.36 1.55 -1.85 0.01c0.13,-0.48 0.7,-2.28 0.9,-2.57 0.5,-0.71 1.77,-0.93 2.56,-0.95l0.41 1.72c-0.44,0.2 -0.44,0.47 -0.44,1.08 0,0.52 -0,1.04 0.02,1.56 0.07,0.36 0.25,0.39 0.48,0.58l4.17 0c0.23,-0.18 0.41,-0.22 0.48,-0.58 0.02,-0.5 0.02,-1 0.02,-1.49 0,-0.63 0.03,-0.92 -0.42,-1.14l0.32 -1.53 -0.02 -0.09 0.08 -0.17c0.32,0.03 0.12,0.02 0.2,0.09 0.3,0.01 1.11,0.17 1.42,0.25 1.16,0.29 1.46,1.89 1.86,3.24l-1.38 0 -0.49 -0 -0.35 -1.56c-0.17,-0.09 0,-0.06 -0.27,-0.05l-0.07 -0.05c-0.12,0.14 -0.07,0.04 -0.11,0.25l0.34 1.38 -0.63 0.03 0.01 0.47 3.59 0c-0.16,-0.63 -0.41,-1.28 -0.62,-1.89 -0.75,-2.24 -0.99,-2.13 -3.5,-2.6 -0.37,-0.07 -0.84,-0.08 -0.89,-0.27 0,-0.49 -0.06,-0.4 0.23,-0.68 0.6,-0.58 0.67,-0.8 0.91,-1.62 0.89,-0.26 0.97,-0.74 0.97,-1.72 -0,-0.93 0.06,-1.62 -0.24,-2.45 -0.38,-1.06 -1.4,-1.96 -2.43,-2.25 -0.08,-0.02 -0.18,-0.04 -0.25,-0.07l-0.26 -0.1 -1.15 0 -0.99 0.35c-0.82,0.38 -1.62,1.13 -1.95,2.07 -0.29,0.81 -0.24,1.54 -0.24,2.45 -0,1.82 0.63,1.36 0.96,1.74 0.22,0.55 0.17,0.7 0.54,1.2 0.37,0.5 0.69,0.34 0.59,1.19l-0.83 0.13z"/>
    <path class="fil0" d="M6.85 12.75c0.12,0.58 -0.5,0.58 -0.38,-0.02l0.38 0.02zm-0.44 -0.46c-0.31,0.11 -0.55,0.5 -0.4,0.91 0.1,0.28 0.5,0.55 0.92,0.39 0.84,-0.33 0.37,-1.63 -0.51,-1.3z"/>
   </g>
   <path class="fil1" d="M5.45 11.79c-1.24,-0.09 -0.87,0.09 -0.89,2.09l0.04 0.23 0.87 0.02 -0.29 -0.39c-0.24,-1.24 -0.35,-0.72 0.26,-1.95z"/>
   <path class="fil1" d="M7.88 11.79c0.61,1.18 0.49,0.77 0.26,1.95l-0.29 0.4 0.87 -0.04 0.04 -0.22c-0.02,-2 0.35,-2.18 -0.89,-2.09z"/>
   <path class="fil1" d="M7.83 12.86c-0.04,-0.65 -0.6,-1.16 -1.33,-1.07 -0.6,0.07 -1.08,0.62 -1,1.32 0.17,1.44 2.44,1.31 2.33,-0.24zm-1.42 -0.56c0.88,-0.32 1.35,0.97 0.51,1.3 -0.42,0.16 -0.82,-0.11 -0.92,-0.39 -0.15,-0.41 0.09,-0.8 0.4,-0.91z"/>
  </g>
 </g>
</svg>
